HIERARCHY
ROOT Hips
{
	OFFSET 0.000000 0.000000 0.000000
	CHANNELS 6 Xposition Yposition Zposition Zrotation Yrotation Xrotation 
	JOINT LHipJoint
	{
		OFFSET 0.000000 0.000000 0.000000
		CHANNELS 3 Zrotation Yrotation Xrotation
		JOINT LeftUpLeg
		{
			OFFSET 1.363060 -1.794630 0.839290
			CHANNELS 3 Zrotation Yrotation Xrotation
			JOINT LeftLeg
			{
				OFFSET 2.448110 -6.726130 0.000000
				CHANNELS 3 Zrotation Yrotation Xrotation
				JOINT LeftFoot
				{
					OFFSET 2.562200 -7.039590 0.000000
					CHANNELS 3 Zrotation Yrotation Xrotation
					JOINT LeftToeBase
					{
						OFFSET 0.157640 -0.433110 2.322550
						CHANNELS 3 Zrotation Yrotation Xrotation
						End Site
						{
							OFFSET 0.000000 0.000000 0.000000
						}
					}
				}
			}
		}
	}
	JOINT RHipJoint
	{
		OFFSET 0.000000 0.000000 0.000000
		CHANNELS 3 Zrotation Yrotation Xrotation
		JOINT RightUpLeg
		{
			OFFSET -1.305520 -1.794630 0.839290
			CHANNELS 3 Zrotation Yrotation Xrotation
			JOINT RightLeg
			{
				OFFSET -2.542530 -6.985550 0.000000
				CHANNELS 3 Zrotation Yrotation Xrotation
				JOINT RightFoot
				{
					OFFSET -2.568260 -7.056230 0.000000
					CHANNELS 3 Zrotation Yrotation Xrotation
					JOINT RightToeBase
					{
						OFFSET -0.164730 -0.452590 2.363150
						CHANNELS 3 Zrotation Yrotation Xrotation
						End Site
						{
							OFFSET 0.000000 0.000000 0.000000
						}
					}
				}
			}
		}
	}
	JOINT LowerBack
	{
		OFFSET 0.000000 0.000000 0.000000
		CHANNELS 3 Zrotation Yrotation Xrotation
		JOINT Spine
		{
			OFFSET 0.028270 2.035590 -0.193380
			CHANNELS 3 Zrotation Yrotation Xrotation
			JOINT Spine1
			{
				OFFSET 0.056720 2.048850 -0.042750
				CHANNELS 3 Zrotation Yrotation Xrotation
				JOINT Neck
				{
					OFFSET 0.000000 0.000000 0.000000
					CHANNELS 3 Zrotation Yrotation Xrotation
					JOINT Neck1
					{
						OFFSET -0.054170 1.746240 0.172020
						CHANNELS 3 Zrotation Yrotation Xrotation
						JOINT Head
						{
							OFFSET 0.104070 1.761360 -0.123970
							CHANNELS 3 Zrotation Yrotation Xrotation
							End Site
							{
								OFFSET 0.000000 0.000000 0.000000
							}
						}
					}
				}
				JOINT LeftShoulder
				{
					OFFSET 0.000000 0.000000 0.000000
					CHANNELS 3 Zrotation Yrotation Xrotation
					JOINT LeftArm
					{
						OFFSET 3.362410 1.200890 -0.311210
						CHANNELS 3 Zrotation Yrotation Xrotation
						JOINT LeftForeArm
						{
							OFFSET 4.983000 -0.000000 -0.000000
							CHANNELS 3 Zrotation Yrotation Xrotation
							JOINT LeftHand
							{
								OFFSET 3.483560 -0.000000 -0.000000
								CHANNELS 3 Zrotation Yrotation Xrotation
								JOINT LeftFingerBase
								{
									OFFSET 0.000000 0.000000 0.000000
									CHANNELS 3 Zrotation Yrotation Xrotation
									JOINT LeftHandIndex1
									{
										OFFSET 0.715260 -0.000000 -0.000000
										CHANNELS 3 Zrotation Yrotation Xrotation
										End Site
										{
											OFFSET 0.000000 0.000000 0.000000
										}
									}
								}
								JOINT LThumb
								{
									OFFSET 0.000000 0.000000 0.000000
									CHANNELS 3 Zrotation Yrotation Xrotation
									End Site
									{
										OFFSET 0.000000 0.000000 0.000000
									}
								}
							}
						}
					}
				}
				JOINT RightShoulder
				{
					OFFSET 0.000000 0.000000 0.000000
					CHANNELS 3 Zrotation Yrotation Xrotation
					JOINT RightArm
					{
						OFFSET -3.136600 1.374050 -0.404650
						CHANNELS 3 Zrotation Yrotation Xrotation
						JOINT RightForeArm
						{
							OFFSET -5.241900 -0.000000 -0.000000
							CHANNELS 3 Zrotation Yrotation Xrotation
							JOINT RightHand
							{
								OFFSET -3.444170 -0.000000 -0.000000
								CHANNELS 3 Zrotation Yrotation Xrotation
								JOINT RightFingerBase
								{
									OFFSET 0.000000 0.000000 0.000000
									CHANNELS 3 Zrotation Yrotation Xrotation
									JOINT RightHandIndex1
									{
										OFFSET -0.622530 -0.000000 -0.000000
										CHANNELS 3 Zrotation Yrotation Xrotation
										End Site
										{
											OFFSET 0.000000 0.000000 0.000000
										}
									}
								}
								JOINT RThumb
								{
									OFFSET 0.000000 0.000000 0.000000
									CHANNELS 3 Zrotation Yrotation Xrotation
									End Site
									{
										OFFSET 0.000000 0.000000 0.000000
									}
								}
							}
						}
					}
				}
			}
		}
	}
}
MOTION
Frames: 4
Frame Time: 0.008333
-19.584078 15.984438 -0.445442 15.402580 83.365339 39.111482 -8.647823 -0.749102 6.136648 -4.884205 -12.335692 -65.195647 -0.943701 1.769667 41.818219 2.502491 8.760780 -13.277741 -0.412500 -0.000000 -27.426900 10.257327 -4.641359 -0.242582 1.989094 -7.826392 6.208551 1.535298 -0.855099 11.215021 0.374456 4.908676 12.567799 1.363800 0.000000 -92.353100 -6.096839 1.373262 -6.179321 -2.175601 1.646752 -4.618422 -6.153459 1.471298 -0.820169 9.016715 -0.045764 -4.843769 -3.395048 -0.297650 0.721901 0.000000 0.000000 0.000000 -3.645466 9.205021 3.203473 -56.946115 26.818497 5.486019 -4.952797 -11.642187 -0.009711 0.975497 4.157239 0.041445 -0.149065 -0.094470 -0.000000 0.000000 0.000000 0.000000 0.000000 0.000000 0.000000 13.702572 6.527318 0.443641 63.503992 47.058746 18.119501 1.208475 54.030326 -0.006824 -1.217755 8.873748 -0.097942 -0.000251 -0.432254 -0.000000 0.000000 0.000000 0.000000 0.000000 0.000000 0.000000 
-19.338639 16.018333 -0.453373 16.404879 83.329935 40.023492 -8.653269 -0.713074 6.049697 -5.343638 -12.370866 -64.333234 -0.917537 1.780185 42.373840 2.545071 9.024529 -13.476059 -0.476300 0.000000 -26.874399 10.420525 -4.719993 -0.245899 1.594642 -7.966034 4.820060 1.168814 -1.196415 14.472875 0.157951 4.302644 15.883465 1.493800 0.000000 -93.143900 -6.306384 1.330307 -6.152838 -2.235722 1.624786 -4.620129 -6.213404 1.448706 -0.858304 9.127309 0.034318 -4.825201 -3.452679 -0.301747 0.721547 0.000000 0.000000 0.000000 -3.509335 8.977206 3.245974 -57.062582 25.640243 5.390518 -4.932483 -11.199348 -0.009008 1.239900 4.069403 0.050059 -0.147029 -0.088427 -0.000000 0.000000 0.000000 0.000000 0.000000 0.000000 0.000000 14.030728 6.583245 0.448124 64.119695 46.147345 17.844689 1.228036 53.246168 -0.009538 -1.791807 8.984734 -0.147214 0.008966 -0.430193 -0.000000 0.000000 0.000000 0.000000 0.000000 0.000000 0.000000 
-19.096715 16.055472 -0.461812 17.593202 83.330453 41.088309 -8.653331 -0.669465 5.937622 -5.879870 -12.337365 -63.348587 -0.916297 1.778813 42.752530 2.555426 9.155252 -13.606336 -0.526700 -0.000000 -26.498400 10.612440 -4.733566 -0.265921 1.209952 -8.191052 3.230198 0.789176 -1.491404 18.069101 -0.108780 3.591937 19.090674 1.536400 0.000000 -92.264000 -6.498443 1.265599 -6.070026 -2.290600 1.579423 -4.608560 -6.275088 1.403104 -0.890478 9.236023 0.119840 -4.801578 -3.518219 -0.306339 0.721449 0.000000 0.000000 0.000000 -3.349427 8.712805 3.293501 -57.281400 24.329662 5.267016 -4.903317 -10.709198 -0.008253 1.547282 3.971208 0.059574 -0.144411 -0.081643 -0.000000 0.000000 0.000000 0.000000 0.000000 0.000000 0.000000 14.395974 6.619268 0.455217 64.743661 45.143957 17.581276 1.248443 52.376485 -0.012149 -2.365766 9.093696 -0.197397 0.018078 -0.426672 -0.000000 0.000000 0.000000 0.000000 0.000000 0.000000 0.000000 
-18.858472 16.095448 -0.470695 18.901120 83.366012 42.248877 -8.648951 -0.616014 5.804877 -6.474857 -12.229391 -62.253228 -0.937295 1.765881 42.961234 2.536939 9.161557 -13.678982 -0.563600 0.000000 -26.283100 10.822038 -4.677762 -0.292692 0.865412 -8.452504 1.464506 0.427160 -1.730661 21.945815 -0.411405 2.721534 21.990050 1.431801 0.000000 -89.654201 -6.663651 1.180952 -5.945752 -2.338040 1.511273 -4.586165 -6.338544 1.334791 -0.915005 9.342734 0.205973 -4.770514 -3.589622 -0.311314 0.722661 0.000000 0.000000 0.000000 -3.167503 8.414343 3.341836 -57.592020 22.904983 5.133285 -4.865197 -10.195015 -0.007491 1.889295 3.864194 0.069592 -0.141264 -0.074278 -0.000000 0.000000 0.000000 0.000000 0.000000 0.000000 0.000000 14.788778 6.628005 0.462840 65.387357 44.053262 17.334558 1.271287 51.415060 -0.014437 -2.906103 9.194766 -0.245588 0.026636 -0.421455 -0.000000 0.000000 0.000000 0.000000 0.000000 0.000000 0.000000 
